<svg viewBox="0 0 1002 884" width="1002px" height="1002px" xmlns="http://www.w3.org/2000/svg" xmlns:bx="https://boxy-svg.com">
  <defs>
    <linearGradient id="color-0" gradientUnits="userSpaceOnUse" gradientTransform="matrix(1, 0, 0, 1, 522.397644, -0.000238)" bx:pinned="true">
      <title>tan</title>
      <stop style="stop-color: rgb(250, 220, 184);"></stop>
    </linearGradient>
    <linearGradient id="color-1" gradientUnits="userSpaceOnUse" gradientTransform="matrix(1, 0, 0, -1, -0.000002, 456.311798)" bx:pinned="true">
      <title>yellow</title>
      <stop style="stop-color: rgb(252, 208, 47);"></stop>
    </linearGradient>
    <linearGradient id="color-2" gradientUnits="userSpaceOnUse" gradientTransform="matrix(1, 0, 0, 1, 0, 0)" bx:pinned="true">
      <title>black</title>
      <stop style="stop-color: rgb(0, 0, 0);"></stop>
    </linearGradient>
    <linearGradient id="color-3" gradientUnits="userSpaceOnUse" gradientTransform="matrix(1, 0, 0, 1, 0, 5.335618)" bx:pinned="true">
      <title>grey</title>
      <stop style="stop-color: rgb(142, 142, 142);"></stop>
    </linearGradient>
    <linearGradient id="color-4" gradientUnits="userSpaceOnUse" bx:pinned="true">
      <title>pink</title>
      <stop style="stop-color: rgb(245, 127, 162);"></stop>
    </linearGradient>
  </defs>
  <g transform="matrix(2.061159, 0, 0, 2.061159, -12.949924, -9.114107)" style="">
    <title>Pencils Name Tag</title>
    <g style="">
      <title>Lead</title>
      <path style="fill: url(#color-2);" d="M 92.772 4.907 L 77.026 38.786 C 77.026 38.786 82.861 40.616 92.751 40.706 C 101.702 40.787 108.795 39.056 108.795 39.056 L 92.772 4.907 Z">
        <title>1 - lead</title>
      </path>
      <path style="fill: url(#color-2);" d="M 197.335 4.907 L 181.589 38.786 C 181.589 38.786 187.424 40.616 197.314 40.706 C 206.265 40.787 213.358 39.056 213.358 39.056 L 197.335 4.907 Z">
        <title>2 - lead</title>
      </path>
      <path style="fill: url(#color-2);" d="M 301.837 4.907 L 286.091 38.786 C 286.091 38.786 291.926 40.616 301.816 40.706 C 310.767 40.787 317.86 39.056 317.86 39.056 L 301.837 4.907 Z">
        <title>3 - lead</title>
      </path>
      <path style="fill: url(#color-2);" d="M 406.4 4.907 L 390.654 38.786 C 390.654 38.786 396.489 40.616 406.379 40.706 C 415.33 40.787 422.423 39.056 422.423 39.056 L 406.4 4.907 Z">
        <title>4 - lead</title>
      </path>
    </g>
    <g style="">
      <title>Tan</title>
      <path style="fill: url(#color-0);" d="M 77.026 38.658 L 50.596 96.913 L 60.232 90.062 L 77.026 101.272 L 92.917 89.936 L 108.795 100.601 L 125.536 90.079 L 135.935 97.179 L 108.795 38.998 C 108.795 38.998 103.652 40.709 93.054 40.709 C 81.743 40.709 77.026 38.658 77.026 38.658 Z">
        <title>1 - tan</title>
      </path>
      <path style="fill: url(#color-0);" d="M 181.451 38.658 L 155.021 96.913 L 164.657 90.062 L 181.451 101.272 L 197.342 89.936 L 213.22 100.601 L 229.961 90.079 L 240.36 97.179 L 213.22 38.998 C 213.22 38.998 208.077 40.709 197.479 40.709 C 186.168 40.709 181.451 38.658 181.451 38.658 Z">
        <title>2 - tan</title>
      </path>
      <path style="fill: url(#color-0);" d="M 286.012 38.658 L 259.582 96.913 L 269.218 90.062 L 286.012 101.272 L 301.903 89.936 L 317.781 100.601 L 334.522 90.079 L 344.921 97.179 L 317.781 38.998 C 317.781 38.998 312.638 40.709 302.04 40.709 C 290.729 40.709 286.012 38.658 286.012 38.658 Z">
        <title>3 - tan</title>
      </path>
      <path style="fill: url(#color-0);" d="M 390.437 38.658 L 364.007 96.913 L 373.643 90.062 L 390.437 101.272 L 406.328 89.936 L 422.206 100.601 L 438.947 90.079 L 449.346 97.179 L 422.206 38.998 C 422.206 38.998 417.063 40.709 406.465 40.709 C 395.154 40.709 390.437 38.658 390.437 38.658 Z">
        <title>4 - tan</title>
      </path>
    </g>
    <g style="">
      <title>Wood</title>
      <path d="M 49.164 102.502 L 60.363 94.657 L 75.515 104.963 L 75.433 169.573 L 78.538 169.643 L 78.419 104.807 L 92.821 94.769 L 107.909 105.354 L 107.504 169.352 L 110.884 169.338 L 111.302 104.76 L 125.154 95.082 L 136.711 102.484 L 136.689 170.121 L 153.426 170.165 L 153.336 102.958 L 164.82 94.585 L 179.178 104.391 L 178.81 169.704 L 183.531 169.915 L 183.485 104.619 L 197.457 94.713 L 212.016 105.111 L 211.522 169.347 L 214.986 169.483 L 214.912 105.462 L 229.733 94.717 L 241.056 103.158 L 240.662 170.011 L 257.58 170.033 L 257.747 102.856 L 269.379 94.863 L 283.837 104.761 L 283.515 170.117 L 287.273 170.135 L 287.074 105.526 L 302.039 94.819 L 316.139 104.594 L 315.819 169.167 L 319.793 169.25 L 319.565 104.743 L 334.112 95.036 L 345.364 102.896 L 345.268 170.028 L 362.662 170.104 L 362.128 103.034 L 373.492 94.567 L 388.33 104.456 L 387.661 169.93 L 391.9 169.83 L 391.603 105.138 L 406.22 94.28 L 420.528 105.04 L 420.173 170.226 L 424.288 170.108 L 423.896 104.913 L 438.62 94.74 L 450.298 103.22 L 450.288 169.966 L 491.932 169.862 L 491.862 183.319 L 6.803 183.239 L 6.768 169.646 L 49.33 169.681 L 49.164 102.502 Z" style="fill: url(#color-1);">
        <title>top wood</title>
      </path>
      <path d="M 49.33 291.967 L 6.768 292.002 L 6.803 278.409 L 491.862 278.329 L 491.932 291.786 L 450.288 291.682 L 450.295 340.912 L 423.991 340.912 L 424.288 291.54 L 420.173 291.422 L 420.443 340.912 L 391.675 340.912 L 391.9 291.818 L 387.661 291.718 L 388.164 340.912 L 362.269 340.912 L 362.662 291.544 L 345.268 291.62 L 345.338 340.912 L 319.622 340.912 L 319.793 292.398 L 315.819 292.481 L 316.059 340.912 L 287.121 340.912 L 287.273 291.513 L 283.515 291.531 L 283.758 340.912 L 257.703 340.912 L 257.58 291.615 L 240.662 291.637 L 240.952 340.912 L 214.93 340.912 L 214.986 292.165 L 211.522 292.301 L 211.896 340.912 L 183.496 340.912 L 183.531 291.733 L 178.81 291.944 L 179.086 340.912 L 153.36 340.912 L 153.426 291.483 L 136.689 291.527 L 136.705 340.912 L 111.199 340.912 L 110.884 292.31 L 107.504 292.296 L 107.812 340.912 L 78.448 340.912 L 78.538 292.005 L 75.433 292.075 L 75.495 340.912 L 49.209 340.912 L 49.33 291.967 Z" style="fill: url(#color-1);">
        <title>bottom wood</title>
      </path>
    </g>
    <g style="">
      <title>Metal</title>
      <g transform="matrix(1, 0, 0, 1, -313.857697, 0)">
        <title>1 - Metal</title>
        <path d="M 358.786 350.102 C 358.786 346.888 361.312 344.265 364.487 344.109 L 364.487 344.102 L 448.277 344.102 L 448.277 344.104 C 451.528 344.176 454.141 346.833 454.141 350.102 C 454.141 353.371 451.528 356.028 448.277 356.1 L 448.277 356.102 L 364.487 356.102 L 364.487 356.095 C 361.312 355.939 358.786 353.316 358.786 350.102 Z" style="fill: url(#color-3);">
          <title>1 - metal - 1</title>
        </path>
        <path d="M 358.786 364.571 C 358.786 361.357 361.312 358.734 364.487 358.578 L 364.487 358.571 L 448.277 358.571 L 448.277 358.573 C 451.528 358.645 454.141 361.302 454.141 364.571 C 454.141 367.84 451.528 370.497 448.277 370.569 L 448.277 370.571 L 364.487 370.571 L 364.487 370.564 C 361.312 370.408 358.786 367.785 358.786 364.571 Z" style="fill: url(#color-3);">
          <title>1 - metal - 2</title>
        </path>
        <path d="M 358.786 379.094 C 358.786 375.88 361.312 373.257 364.487 373.101 L 364.487 373.094 L 448.277 373.094 L 448.277 373.096 C 451.528 373.168 454.141 375.825 454.141 379.094 C 454.141 382.363 451.528 385.02 448.277 385.092 L 448.277 385.094 L 364.487 385.094 L 364.487 385.087 C 361.312 384.931 358.786 382.308 358.786 379.094 Z" style="fill: url(#color-3);">
          <title>1 - metal - 3</title>
        </path>
      </g>
      <g transform="matrix(1, 0, 0, 1, -208.896347, 0)">
        <title>2 - Metal</title>
        <path d="M 358.786 350.102 C 358.786 346.888 361.312 344.265 364.487 344.109 L 364.487 344.102 L 448.277 344.102 L 448.277 344.104 C 451.528 344.176 454.141 346.833 454.141 350.102 C 454.141 353.371 451.528 356.028 448.277 356.1 L 448.277 356.102 L 364.487 356.102 L 364.487 356.095 C 361.312 355.939 358.786 353.316 358.786 350.102 Z" style="fill: url(#color-3);">
          <title>2 - metal - 1</title>
        </path>
        <path d="M 358.786 364.571 C 358.786 361.357 361.312 358.734 364.487 358.578 L 364.487 358.571 L 448.277 358.571 L 448.277 358.573 C 451.528 358.645 454.141 361.302 454.141 364.571 C 454.141 367.84 451.528 370.497 448.277 370.569 L 448.277 370.571 L 364.487 370.571 L 364.487 370.564 C 361.312 370.408 358.786 367.785 358.786 364.571 Z" style="fill: url(#color-3);">
          <title>2 - metal - 2</title>
        </path>
        <path d="M 358.786 379.094 C 358.786 375.88 361.312 373.257 364.487 373.101 L 364.487 373.094 L 448.277 373.094 L 448.277 373.096 C 451.528 373.168 454.141 375.825 454.141 379.094 C 454.141 382.363 451.528 385.02 448.277 385.092 L 448.277 385.094 L 364.487 385.094 L 364.487 385.087 C 361.312 384.931 358.786 382.308 358.786 379.094 Z" style="fill: url(#color-3);">
          <title>2 - metal - 3</title>
        </path>
      </g>
      <g transform="matrix(1, 0, 0, 1, -104.961349, 0)">
        <title>3 - Metal</title>
        <path d="M 358.786 350.102 C 358.786 346.888 361.312 344.265 364.487 344.109 L 364.487 344.102 L 448.277 344.102 L 448.277 344.104 C 451.528 344.176 454.141 346.833 454.141 350.102 C 454.141 353.371 451.528 356.028 448.277 356.1 L 448.277 356.102 L 364.487 356.102 L 364.487 356.095 C 361.312 355.939 358.786 353.316 358.786 350.102 Z" style="fill: url(#color-3);">
          <title>3 - metal - 1</title>
        </path>
        <path d="M 358.786 364.571 C 358.786 361.357 361.312 358.734 364.487 358.578 L 364.487 358.571 L 448.277 358.571 L 448.277 358.573 C 451.528 358.645 454.141 361.302 454.141 364.571 C 454.141 367.84 451.528 370.497 448.277 370.569 L 448.277 370.571 L 364.487 370.571 L 364.487 370.564 C 361.312 370.408 358.786 367.785 358.786 364.571 Z" style="fill: url(#color-3);">
          <title>3 - metal - 2</title>
        </path>
        <path d="M 358.786 379.094 C 358.786 375.88 361.312 373.257 364.487 373.101 L 364.487 373.094 L 448.277 373.094 L 448.277 373.096 C 451.528 373.168 454.141 375.825 454.141 379.094 C 454.141 382.363 451.528 385.02 448.277 385.092 L 448.277 385.094 L 364.487 385.094 L 364.487 385.087 C 361.312 384.931 358.786 382.308 358.786 379.094 Z" style="fill: url(#color-3);">
          <title>3 - metal - 3</title>
        </path>
      </g>
      <g>
        <title>4 - Metal</title>
        <path d="M 358.786 350.102 C 358.786 346.888 361.312 344.265 364.487 344.109 L 364.487 344.102 L 448.277 344.102 L 448.277 344.104 C 451.528 344.176 454.141 346.833 454.141 350.102 C 454.141 353.371 451.528 356.028 448.277 356.1 L 448.277 356.102 L 364.487 356.102 L 364.487 356.095 C 361.312 355.939 358.786 353.316 358.786 350.102 Z" style="fill: url(#color-3);">
          <title>4 - metal - 1</title>
        </path>
        <path d="M 358.786 364.571 C 358.786 361.357 361.312 358.734 364.487 358.578 L 364.487 358.571 L 448.277 358.571 L 448.277 358.573 C 451.528 358.645 454.141 361.302 454.141 364.571 C 454.141 367.84 451.528 370.497 448.277 370.569 L 448.277 370.571 L 364.487 370.571 L 364.487 370.564 C 361.312 370.408 358.786 367.785 358.786 364.571 Z" style="fill: url(#color-3);">
          <title>4 - metal - 2</title>
        </path>
        <path d="M 358.786 379.094 C 358.786 375.88 361.312 373.257 364.487 373.101 L 364.487 373.094 L 448.277 373.094 L 448.277 373.096 C 451.528 373.168 454.141 375.825 454.141 379.094 C 454.141 382.363 451.528 385.02 448.277 385.092 L 448.277 385.094 L 364.487 385.094 L 364.487 385.087 C 361.312 384.931 358.786 382.308 358.786 379.094 Z" style="fill: url(#color-3);">
          <title>4 - metal - 3</title>
        </path>
      </g>
    </g>
    <g style="">
      <title>Eraser</title>
      <path d="M 136.037 413.938 C 136.037 424.309 116.561 432.716 92.537 432.716 C 68.513 432.716 49.037 424.309 49.037 413.938 C 49.037 413.847 49.038 413.757 49.041 413.666 L 49.037 413.666 L 49.037 390.148 L 136.037 390.148 L 136.037 413.666 L 136.033 413.666 C 136.036 413.757 136.037 413.847 136.037 413.938 Z" style="fill: url(#color-4);">
        <title>1 - Eraser</title>
      </path>
      <path d="M 240.612 413.938 C 240.612 424.309 221.136 432.716 197.112 432.716 C 173.088 432.716 153.612 424.309 153.612 413.938 C 153.612 413.847 153.613 413.757 153.616 413.666 L 153.612 413.666 L 153.612 390.148 L 240.612 390.148 L 240.612 413.666 L 240.608 413.666 C 240.611 413.757 240.612 413.847 240.612 413.938 Z" style="fill: url(#color-4);">
        <title>2 - Eraser</title>
      </path>
      <path d="M 345.239 413.938 C 345.239 424.309 325.763 432.716 301.739 432.716 C 277.715 432.716 258.239 424.309 258.239 413.938 C 258.239 413.847 258.24 413.757 258.243 413.666 L 258.239 413.666 L 258.239 390.148 L 345.239 390.148 L 345.239 413.666 L 345.235 413.666 C 345.238 413.757 345.239 413.847 345.239 413.938 Z" style="fill: url(#color-4);">
        <title>3 - Eraser</title>
      </path>
      <path d="M 449.814 413.938 C 449.814 424.309 430.338 432.716 406.314 432.716 C 382.29 432.716 362.814 424.309 362.814 413.938 C 362.814 413.847 362.815 413.757 362.818 413.666 L 362.814 413.666 L 362.814 390.148 L 449.814 390.148 L 449.814 413.666 L 449.81 413.666 C 449.813 413.757 449.814 413.847 449.814 413.938 Z" style="fill: url(#color-4);">
        <title>4 - Eraser</title>
      </path>
    </g>
  </g>
</svg>