<?xml version="1.0" encoding="utf-8"?>
<svg viewBox="0 0 500 250" xmlns="http://www.w3.org/2000/svg">
  <path d="M 125 0 H 375 A 125 125 0 0 1 500 125 V 125 A 125 125 0 0 1 375 250 H 125 A 125 125 0 0 1 0 125 V 125 A 125 125 0 0 1 125 0 Z" style="fill: rgb(41, 41, 41);" transform="matrix(1, 0, 0, 0.9999999999999999, 1.4210854715202004e-14, 0)"/>
  <path d="M 435.224 125 C 435.224 163.707 413.428 195.085 386.541 195.085 C 359.654 195.085 337.858 163.707 337.858 125 C 337.858 86.293 359.654 54.915 386.541 54.915 C 413.428 54.915 435.224 86.293 435.224 125 Z M 113.459 54.915 C 140.346 54.915 162.142 86.293 162.142 125 C 162.142 163.707 140.346 195.085 113.459 195.085 C 86.572 195.085 64.776 163.707 64.776 125 C 64.776 86.293 86.572 54.915 113.459 54.915 Z" style="fill: rgb(109, 216, 241);" transform="matrix(1, 0, 0, 0.9999999999999999, 1.4210854715202004e-14, 0)"/>
</svg>