<svg viewBox="0 0 460 500" xmlns="http://www.w3.org/2000/svg">
  <defs></defs>
  <path style="stroke: rgb(0, 0, 0); stroke-linecap: round; stroke-linejoin: round; stroke-width: 0px; fill: rgb(255, 140, 0);" d="M 125.169 120.754 C 125.169 120.754 142.139 111.094 163.162 111.094 C 183.499 111.094 200.011 120.683 200.011 120.683 L 209.917 116.015 C 209.917 116.015 186.796 66.513 187.058 36.928 C 230.323 1.364 268.868 0.99 271.894 1.096 C 277.242 32.763 254.539 113.238 254.539 113.238 L 274.514 120.597 C 274.514 120.597 294.219 110.312 317.31 112.006 C 351.74 114.058 391.293 141.179 391.293 141.179 C 391.293 141.179 421.947 164.751 433.675 192.046 C 451.06 220.485 458.153 267.675 458.153 267.675 C 458.153 267.675 461.011 303.253 456.23 339.421 C 452.674 366.317 443.488 392.453 433.234 410.304 C 426.615 421.829 416.011 440.121 402.331 451.417 C 377.521 471.902 347.496 482.692 347.496 482.692 C 347.496 482.692 332.882 489.607 316.476 490.637 C 295.255 491.08 284.836 484.692 284.836 484.692 C 284.836 484.692 266.996 499.085 236.525 498.911 C 209.204 498.883 189.561 484 189.561 484 C 189.561 484 175.679 490.272 156.149 489.706 C 134.585 487.568 126.417 480.15 126.417 480.15 C 126.417 480.15 106.151 481.011 86.352 470.6 C 67.56 460.665 64.842 457.711 55.435 449.235 C 43.214 439.674 37.965 429.394 27.81 411.756 C 18.942 396.55 12.984 376.559 12.984 376.559 C 12.984 376.559 4.399 350.118 1.801 324.854 C 0.042 298.782 1.728 276.469 1.728 276.469 C 1.728 276.469 2.499 248.73 14.725 217.069 C 22.83 196.083 35.553 175.649 35.553 175.649 C 35.553 175.649 47.314 155.603 74.945 135.605 C 99.383 117.922 125.169 120.754 125.169 120.754 Z M 266.211 259.187 C 266.211 259.187 309.496 253.321 326.198 254.275 C 357.233 254.454 388.093 260.077 388.093 260.077 L 326.358 153.607 Z M 73.091 259.201 C 73.091 259.201 116.377 253.336 133.078 254.288 C 164.114 254.468 194.974 260.091 194.974 260.091 L 133.239 153.621 Z M 185.342 330.821 C 185.342 330.821 217.382 326.478 229.743 327.185 C 252.711 327.318 275.552 331.481 275.552 331.481 L 229.86 252.679 Z M 105.741 404.033 C 152.954 462.835 210.08 462.659 210.08 462.659 L 202.295 415.597 L 258.126 415.653 L 250.487 462.648 C 250.487 462.648 319.212 459.093 359.995 395.647 C 391.993 352.683 389.314 303.76 389.314 303.76 C 389.314 303.76 367.836 326.782 355.129 336.355 C 343.685 344.974 318.296 358.038 318.296 358.038 L 337.955 393.544 L 285.23 414.028 L 275.88 370.734 C 275.88 370.734 246.455 374.912 230.439 374.891 C 214.555 374.869 184.185 370.729 184.185 370.729 L 175.459 413.962 L 122.651 392.317 L 141.727 358.324 C 141.727 358.324 114.478 344.254 102.361 334.722 C 90.265 325.205 70.376 302.578 70.376 302.578 C 70.376 302.578 67.134 353.25 105.741 404.033 Z"></path>
</svg>