<svg id="svg" width="1600" height="1522" viewBox="-1, 0, 402,380" version="1.1" xmlns="http://www.w3.org/2000/svg" xmlns:bx="https://boxy-svg.com">
  <defs></defs>
  <path style="fill: rgb(255, 145, 0); stroke: rgba(0, 0, 0, 0);" d="M 133.987 70.33 C 133.987 70.33 95.846 47.685 46.378 107.45 C -3.09 167.215 0.486 211.937 0.486 211.937 C 0.486 211.937 -9.577 335.589 127.132 349.939 C 127.132 349.939 136.843 362.196 153.825 367.369 C 166.344 371.182 190.324 362.825 190.324 362.825 C 190.324 362.825 212.366 371.204 237.749 369.68 C 255.472 368.616 277.187 351.608 277.187 351.608 C 277.187 351.608 316.573 362.881 361.468 318.641 C 406.363 274.401 399.999 224.797 399.999 224.797 C 399.999 224.797 393.945 151.12 351.728 109.475 C 351.728 109.475 330.955 91.874 320.988 86.674 C 311.914 81.94 294.604 79.674 294.604 79.674 C 294.604 79.674 274.815 67.649 253.349 67.44 C 231.883 67.231 212.794 78.421 212.794 78.421 C 212.794 78.421 214.091 69.954 215.659 66.033 C 217.795 60.694 218.022 59.054 224.465 51.328 C 231.999 42.295 232.101 42.042 235.365 38.751 C 250.083 23.911 253.621 23.656 254.355 23.406 C 255.685 22.953 263.084 25.582 267.296 27.27 C 271.512 28.96 279.595 33.134 279.595 33.134 C 279.595 33.134 282.943 34.572 282.96 36.034 C 282.98 37.758 281.181 38.577 281.181 38.577 L 269.678 45.11 C 269.678 45.11 261.083 50.987 257.086 44.034 C 257.086 44.034 255.513 41.673 255.55 40.473 C 255.565 39.976 255.926 38.082 257.042 37.159 C 258.157 36.236 261.968 34.668 261.968 34.668 C 261.968 34.668 259.596 34.387 258.471 34.589 C 257.185 34.819 254.896 36.034 254.896 36.034 C 254.896 36.034 252.825 37.769 253.009 40.955 C 253.139 43.209 256.161 48.009 256.161 48.009 C 256.161 48.009 258.829 51.712 260.201 52.758 C 261.573 53.803 262.841 54.458 264.283 54.284 C 267.217 53.929 269.365 52.983 271.692 52.094 C 274.019 51.204 278.357 48.945 278.357 48.945 C 278.357 48.945 282.645 46.934 287.316 39.976 C 291.674 33.485 290.371 31.744 290.371 31.744 C 290.371 31.744 284.825 26.349 280.087 23.195 C 274.369 19.389 260.131 11.152 259.001 10.865 C 257.715 10.539 239.993 8.758 238.058 9.56 C 237.054 9.976 221.692 21.893 212.238 35.567 C 204.701 46.468 189.056 73.887 189.056 73.887 C 189.056 73.887 178.23 63.997 162.976 63.423 C 153.498 63.066 133.987 70.33 133.987 70.33 Z">
    <title>Pump Background</title>
  </path>
  <path style="stroke: rgba(0, 0, 0, 0);" d="M 212.243 163.007 C 212.243 163.007 240.03082385974963 151.1140858693983 250.037 144.499 C 257.62028832715555 139.4856859474168 262.72680869397135 133.26504408772428 268.321 128.691 C 272.8726522401695 124.96937932605427 277.29916006059227 121.36242930777973 280.982 118.907 C 283.6049777872994 117.15820378877336 285.13372413323424 116.02537283720669 288.033 114.887 C 292.0641255121226 113.30421726484396 298.56052343012124 111.27191082529741 303.31 111.308 C 307.4746155709648 111.33964507429361 311.3179937492793 111.7916189548138 315.013 114.238 C 320.20743215348705 117.6771174191702 325.7251024233273 126.36319471335996 329.375 133.269 C 332.99293500724053 140.11433036198198 335.2814645372548 148.71173462554174 336.876 155.462 C 338.1601323781414 160.89821294785474 338.9107867971486 165.1485946849096 338.966 170.511 C 339.0292161590021 176.65066677399506 338.3495669439946 184.46338793153487 336.633 190.291 C 335.14611799145456 195.3388494693705 333.03308645110485 199.68992302793845 330.059 203.711 C 326.95863504049504 207.90281027472173 322.9603104241966 211.6547118411125 318.206 214.812 C 312.74610716485233 218.437858107513 305.22021264659736 221.76231571722647 298.648 223.541 C 292.51603226188973 225.2005376967751 286.7766326981362 225.52012373160062 280.114 225.566 C 272.3289986278944 225.61960445766962 262.3509846029593 225.09555364853284 254.774 223.15 C 248.14415248449473 221.4476441554375 242.39455941135424 218.8680241957407 236.882 215.424 C 231.23492556987327 211.8959362602339 225.59890340420102 207.02400684618064 221.362 202.105 C 217.42575696590384 197.53505714651138 214.18354047647432 192.34090015941825 211.978 187.154 C 209.90067206568634 182.26862486923847 207.80793241510645 176.29806562495162 208.201 171.957 C 208.5122757400588 168.5192491729587 212.243 163.007 212.243 163.007 C 212.24299999999997 163.007 212.243 163.007 212.243 163.007 C 212.243 163.007 212.24300000000002 163.00700000000003 212.243 163.007" bx:d="M 212.243 163.007 R 250.037 144.499 R 268.321 128.691 R 280.982 118.907 R 288.033 114.887 R 303.31 111.308 R 315.013 114.238 R 329.375 133.269 R 336.876 155.462 R 338.966 170.511 R 336.633 190.291 R 330.059 203.711 R 318.206 214.812 R 298.648 223.541 R 280.114 225.566 R 254.774 223.15 R 236.882 215.424 R 221.362 202.105 R 211.978 187.154 R 208.201 171.957 R 212.243 163.007 R 212.243 163.007 Z 1@df7508b4">
    <title>Eye Right</title>
  </path>
  <path style="stroke: rgba(0, 0, 0, 0);" d="M 55.144 173.991 C 55.144 173.991 82.93182385974961 185.8839141306017 92.938 192.499 C 100.52128832715559 197.51231405258324 105.62780869397129 203.73295591227566 111.222 208.307 C 115.77365224016943 212.02862067394577 120.20016006059225 215.63557069222023 123.883 218.091 C 126.5059777872994 219.83979621122657 128.03472413323428 220.9726271627933 130.934 222.111 C 134.96512551212257 223.69378273515602 141.4615234301214 225.72608917470262 146.211 225.69 C 150.37561557096475 225.6583549257064 154.21899374927926 225.2063810451862 157.914 222.76 C 163.108432153487 219.32088258082985 168.62610242332732 210.63480528664005 172.276 203.729 C 175.8939350072406 196.883669638018 178.18246453725484 188.28626537445828 179.777 181.536 C 181.06113237814142 176.0997870521452 181.81178679714859 171.84940531509042 181.867 166.487 C 181.93021615900213 160.3473332260049 181.2505669439947 152.5346120684651 179.534 146.707 C 178.04711799145463 141.65915053062946 175.93408645110486 137.30807697206157 172.96 133.287 C 169.85963504049505 129.09518972527832 165.86131042419663 125.34328815888752 161.107 122.186 C 155.64710716485232 118.56014189248704 148.12121264659746 115.23568428277346 141.549 113.457 C 135.41703226188974 111.79746230322486 129.67763269813625 111.47787626839933 123.015 111.432 C 115.22999862789447 111.37839554233032 105.25198460295935 111.90244635146715 97.675 113.848 C 91.04515248449472 115.55035584456246 85.2955594113542 118.1299758042593 79.783 121.574 C 74.13592556987331 125.10206373976607 68.49990340420104 129.9739931538193 64.263 134.893 C 60.32675696590378 139.46294285348864 57.08454047647433 144.65709984058182 54.879 149.844 C 52.80167206568631 154.72937513076155 50.708932415106474 160.69993437504834 51.102 165.041 C 51.41327574005884 168.47875082704132 55.144 173.991 55.144 173.991 C 55.144 173.991 55.144 173.991 55.144 173.991 C 55.144 173.991 55.144 173.991 55.144 173.991" transform="matrix(-1, 0, 0, -1, 232.925095, 337.118828)" bx:d="M 55.144 173.991 R 92.938 192.499 R 111.222 208.307 R 123.883 218.091 R 130.934 222.111 R 146.211 225.69 R 157.914 222.76 R 172.276 203.729 R 179.777 181.536 R 181.867 166.487 R 179.534 146.707 R 172.96 133.287 R 161.107 122.186 R 141.549 113.457 R 123.015 111.432 R 97.675 113.848 R 79.783 121.574 R 64.263 134.893 R 54.879 149.844 R 51.102 165.041 R 55.144 173.991 R 55.144 173.991 Z 1@28d16329">
    <title>Eye Left</title>
  </path>
  <path style="stroke: rgba(0, 0, 0, 0);" d="M 33.831 223.541 L 81.912 245.651 L 77.981 253.445 L 96.088 261.616 L 99.342 251.009 L 122.838 259.252 L 121.559 274.162 L 154.739 281.214 L 155.834 266.782 L 208.193 268.945 L 210.938 297.277 L 255.355 294.424 L 250.901 265.001 L 303.698 252.975 L 310.551 264.477 L 330.79 254.333 L 325.115 245.608 L 375.312 223.245 C 375.312 223.245 368.22 247.517 358.083 261.215 L 349.107 249.877 L 335.272 259.323 L 342.789 276.248 C 342.789 276.248 333.191 285.03 327.992 289.101 C 322.458 293.435 310.591 301.464 310.591 301.464 L 305.301 273.303 L 267.965 285.972 C 267.965 285.972 272.419 295.136 274.11 299.667 C 276.026 304.802 278.787 314.971 278.787 314.971 C 278.787 314.971 270.602 325.993 227.186 330.213 C 183.77 334.433 172.382 329.097 172.382 329.097 L 176.727 297.73 L 139.693 295.335 L 139.529 324.532 C 139.529 324.532 127.342 319.221 121.189 316.066 C 116.791 313.811 107.908 308.959 107.908 308.959 L 116.815 286.781 L 91.151 271.727 L 81.284 291.658 L 61.64 275.58 L 69.475 255.496 L 52.277 242.125 L 44.305 252.428 C 44.305 252.428 34.048 245.241 33.831 223.541 Z">
    <title>Mouth</title>
  </path>
  <path d="M 202.271 213.077 L 222.887 242.271 L 183.768 242.271 L 202.271 213.077 Z" style="stroke: rgba(0, 0, 0, 0);" transform="matrix(0.998914, -0.046602, 0.046602, 0.998914, -10.389096, 13.216231)" bx:shape="triangle 183.768 213.077 39.119 29.194 0.473 0 1@a5be5eb9">
    <title>Nose</title>
  </path>
</svg>