<svg viewBox="0 0 460 500" xmlns="http://www.w3.org/2000/svg">
  <defs></defs>
  <path style="stroke: rgb(0, 0, 0); stroke-linecap: round; stroke-linejoin: round; stroke-width: 0px; fill: rgb(255, 140, 0);" d="M 125.169 120.708 C 125.169 120.708 142.139 111.045 163.162 111.045 C 183.499 111.045 200.011 120.637 200.011 120.637 L 209.917 115.967 C 209.917 115.967 186.796 66.448 187.058 36.853 C 230.323 1.276 268.868 0.902 271.894 1.008 C 277.242 32.686 254.539 113.189 254.539 113.189 L 274.514 120.551 C 274.514 120.551 294.219 110.262 317.31 111.957 C 351.74 114.01 391.293 141.14 391.293 141.14 C 391.293 141.14 421.947 164.721 433.675 192.025 C 451.06 220.474 458.153 267.681 458.153 267.681 C 458.153 267.681 461.011 303.271 456.23 339.452 C 452.674 366.358 443.488 392.503 433.234 410.36 C 426.615 421.889 416.011 440.187 402.331 451.487 C 377.521 471.98 347.496 482.773 347.496 482.773 C 347.496 482.773 332.882 489.691 316.476 490.721 C 295.255 491.164 284.836 484.774 284.836 484.774 C 284.836 484.774 266.996 499.172 236.525 498.998 C 209.204 498.97 189.561 484.082 189.561 484.082 C 189.561 484.082 175.679 490.356 156.149 489.79 C 134.585 487.651 126.417 480.231 126.417 480.231 C 126.417 480.231 106.151 481.092 86.352 470.677 C 67.56 460.739 64.842 457.784 55.435 449.305 C 43.214 439.74 37.965 429.457 27.81 411.813 C 18.942 396.601 12.984 376.603 12.984 376.603 C 12.984 376.603 4.399 350.153 1.801 324.88 C 0.042 298.799 1.728 276.478 1.728 276.478 C 1.728 276.478 2.499 248.729 14.725 217.057 C 22.83 196.064 35.553 175.622 35.553 175.622 C 35.553 175.622 47.314 155.569 74.945 135.564 C 99.383 117.875 125.169 120.708 125.169 120.708 Z">
    <title>Pumpkin</title>
  </path>
  <path style="stroke: rgb(0, 0, 0); stroke-width: 0px;" d="M 326.358 153.573 L 388.093 260.08 C 388.093 260.08 357.233 254.455 326.198 254.276 C 309.496 253.322 266.211 259.19 266.211 259.19 L 326.358 153.573 Z">
    <title>Eye Right</title>
  </path>
  <path style="stroke: rgb(0, 0, 0); stroke-width: 0px;" d="M 133.239 153.587 L 194.974 260.094 C 194.974 260.094 164.114 254.469 133.078 254.289 C 116.377 253.337 73.091 259.204 73.091 259.204 L 133.239 153.587 Z">
    <title>Eye Left</title>
  </path>
  <path style="stroke: rgb(0, 0, 0); stroke-width: 0px;" d="M 229.86 252.68 L 275.552 331.509 C 275.552 331.509 252.711 327.345 229.743 327.212 C 217.382 326.505 185.342 330.849 185.342 330.849 L 229.86 252.68 Z">
    <title>Nose</title>
  </path>
  <path style="stroke: rgb(0, 0, 0); stroke-width: 0px;" d="M 70.376 302.596 C 70.376 302.596 90.265 325.231 102.361 334.751 C 114.478 344.287 141.727 358.362 141.727 358.362 L 122.651 392.367 L 175.459 414.019 L 184.185 370.771 C 184.185 370.771 214.555 374.913 230.439 374.935 C 246.455 374.956 275.88 370.776 275.88 370.776 L 285.23 414.085 L 337.955 393.594 L 318.296 358.076 C 318.296 358.076 343.685 345.007 355.129 336.385 C 367.836 326.809 389.314 303.779 389.314 303.779 C 389.314 303.779 391.993 352.719 359.995 395.698 C 319.212 459.166 250.487 462.722 250.487 462.722 L 258.126 415.711 L 202.295 415.655 L 210.08 462.733 C 210.08 462.733 152.954 462.909 105.741 404.087 C 67.134 353.286 70.376 302.596 70.376 302.596 Z">
    <title>Mouth</title>
  </path>
</svg>