<?xml version="1.0" encoding="utf-8"?>
<svg viewBox="0 0 500 500" xmlns="http://www.w3.org/2000/svg">
  <path d="M 189.459 8.87 C 189.459 3.845 193.303 0 198.329 0 L 267.224 0 C 272.251 0 276.093 3.845 276.093 8.87 L 276.093 17.224 L 284.446 17.224 C 289.473 17.224 293.317 21.068 293.317 26.095 C 293.317 31.12 289.473 34.965 284.446 34.965 L 276.095 34.965 L 276.095 68.895 L 284.446 68.895 C 289.473 68.895 293.317 72.739 293.317 77.764 C 293.317 82.791 289.473 86.634 284.446 86.634 L 267.224 86.634 C 262.198 86.634 258.354 82.791 258.354 77.764 L 258.354 69.411 L 250 69.411 C 244.974 69.411 241.13 65.569 241.13 60.542 C 241.13 55.515 244.974 51.672 250 51.672 L 258.354 51.672 L 258.354 34.965 L 241.647 34.965 L 241.647 43.318 C 241.647 48.344 237.804 52.188 232.777 52.188 L 224.423 52.188 L 224.423 77.764 C 224.423 82.791 220.579 86.634 215.553 86.634 L 198.329 86.634 C 193.303 86.634 189.459 82.791 189.459 77.764 L 189.459 69.412 L 172.753 69.412 L 172.753 86.635 L 172.752 86.635 L 172.752 94.988 C 172.752 100.015 168.91 103.859 163.883 103.859 L 155.529 103.859 L 155.529 120.565 L 172.236 120.565 L 172.236 112.211 C 172.236 107.186 176.08 103.341 181.105 103.341 C 186.132 103.341 189.976 107.186 189.976 112.211 L 189.976 120.565 L 189.977 120.565 L 189.977 137.789 L 206.682 137.789 L 206.682 112.211 C 206.682 107.186 210.527 103.341 215.553 103.341 C 220.579 103.341 224.423 107.186 224.423 112.211 L 224.423 155.013 L 267.224 155.013 C 272.251 155.013 276.093 158.856 276.093 163.883 L 276.093 172.236 L 284.446 172.236 C 289.473 172.236 293.317 176.08 293.317 181.105 L 293.317 198.329 C 293.317 203.356 289.473 207.2 284.446 207.2 L 276.093 207.2 L 276.093 215.553 C 276.093 220.579 272.251 224.423 267.224 224.423 L 250 224.423 C 244.974 224.423 241.13 220.579 241.13 215.553 C 241.13 210.527 244.974 206.682 250 206.682 L 258.354 206.682 L 258.354 189.977 L 241.647 189.977 L 241.647 198.329 C 241.647 203.356 237.804 207.2 232.777 207.2 L 215.553 207.2 C 210.527 207.2 206.682 203.356 206.682 198.329 C 206.682 193.303 210.527 189.459 215.553 189.459 L 223.907 189.459 L 223.907 172.753 L 189.977 172.753 L 189.977 189.977 L 189.976 189.977 L 189.976 198.329 C 189.976 203.356 186.132 207.2 181.105 207.2 L 155.529 207.2 L 155.529 215.553 C 155.529 220.579 151.686 224.423 146.659 224.423 C 141.633 224.423 137.789 220.579 137.789 215.553 L 137.789 207.2 L 129.436 207.2 C 124.409 207.2 120.565 203.356 120.565 198.329 C 120.565 193.303 124.409 189.459 129.436 189.459 L 155.013 189.459 L 155.013 172.752 L 146.659 172.752 C 141.633 172.752 137.789 168.91 137.789 163.883 C 137.789 158.856 141.633 155.013 146.659 155.013 L 172.236 155.013 L 172.236 138.306 L 146.659 138.306 C 141.633 138.306 137.789 134.462 137.789 129.436 L 137.789 43.318 C 137.789 38.292 141.633 34.447 146.659 34.447 C 151.686 34.447 155.529 38.292 155.529 43.318 L 155.529 51.672 L 172.236 51.672 L 172.236 34.965 L 163.883 34.965 C 158.856 34.965 155.013 31.12 155.013 26.095 C 155.013 21.068 158.856 17.224 163.883 17.224 L 189.459 17.224 L 189.459 8.87 Z M 206.682 43.318 C 206.682 38.292 210.527 34.447 215.553 34.447 L 223.907 34.447 L 223.907 17.741 L 207.2 17.741 L 207.2 26.095 C 207.2 31.12 203.356 34.965 198.329 34.965 L 189.977 34.965 L 189.977 51.672 L 206.682 51.672 L 206.682 43.318 Z M 336.118 17.741 C 331.091 17.741 327.248 13.897 327.248 8.87 C 327.248 3.845 331.091 0 336.118 0 L 353.341 0 C 358.368 0 362.21 3.845 362.21 8.87 L 362.21 17.224 L 362.211 17.224 L 362.211 34.965 L 362.21 34.965 L 362.21 43.318 C 362.21 48.344 358.368 52.188 353.341 52.188 L 344.988 52.188 L 344.988 77.764 C 344.988 82.791 341.145 86.634 336.118 86.634 C 331.091 86.634 327.248 82.791 327.248 77.764 L 327.248 52.188 L 318.894 52.188 C 313.868 52.188 310.023 48.344 310.023 43.318 C 310.023 38.292 313.868 34.447 318.894 34.447 L 344.471 34.447 L 344.471 17.741 L 336.118 17.741 Z M 310.541 60.542 C 310.541 65.441 306.57 69.412 301.671 69.412 C 296.771 69.412 292.8 65.441 292.8 60.542 C 292.8 55.643 296.771 51.672 301.671 51.672 C 306.57 51.672 310.541 55.643 310.541 60.542 Z M 301.671 103.859 C 296.644 103.859 292.8 100.015 292.8 94.988 C 292.8 89.962 296.644 86.119 301.671 86.119 L 318.894 86.119 C 323.92 86.119 327.764 89.962 327.764 94.988 L 327.764 129.436 C 327.764 134.462 323.92 138.306 318.894 138.306 C 313.868 138.306 310.023 134.462 310.023 129.436 L 310.023 103.859 L 301.671 103.859 Z M 344.471 94.988 C 344.471 89.962 348.315 86.119 353.341 86.119 C 358.368 86.119 362.21 89.962 362.21 94.988 L 362.21 112.211 C 362.21 117.238 358.368 121.082 353.341 121.082 C 348.315 121.082 344.471 117.238 344.471 112.211 L 344.471 94.988 Z M 241.13 112.211 C 241.13 107.186 244.974 103.341 250 103.341 C 255.027 103.341 258.869 107.186 258.869 112.211 L 258.869 129.436 C 258.869 134.462 255.027 138.306 250 138.306 C 244.974 138.306 241.13 134.462 241.13 129.436 L 241.13 112.211 Z M 275.577 112.211 C 275.577 107.186 279.421 103.341 284.446 103.341 C 289.473 103.341 293.317 107.186 293.317 112.211 L 293.317 129.436 C 293.317 134.462 289.473 138.306 284.446 138.306 C 279.421 138.306 275.577 134.462 275.577 129.436 L 275.577 112.211 Z M 0 146.659 C 0 141.633 3.845 137.789 8.87 137.789 C 13.897 137.789 17.741 141.633 17.741 146.659 L 17.741 155.013 L 26.095 155.013 C 31.12 155.013 34.965 158.856 34.965 163.883 C 34.965 168.91 31.12 172.752 26.095 172.752 L 17.741 172.752 L 17.741 181.105 C 17.741 186.132 13.897 189.976 8.87 189.976 C 3.845 189.976 0 186.132 0 181.105 L 0 146.659 Z M 43.318 155.529 C 38.292 155.529 34.447 151.686 34.447 146.659 C 34.447 141.633 38.292 137.789 43.318 137.789 L 112.211 137.789 C 117.238 137.789 121.082 141.633 121.082 146.659 C 121.082 151.686 117.238 155.529 112.211 155.529 L 103.86 155.529 L 103.86 172.236 L 112.211 172.236 C 117.238 172.236 121.082 176.08 121.082 181.105 C 121.082 186.132 117.238 189.976 112.211 189.976 L 94.988 189.976 C 89.962 189.976 86.119 186.132 86.119 181.105 L 86.119 155.529 L 69.412 155.529 L 69.412 172.753 L 69.411 172.753 L 69.411 181.105 C 69.411 186.132 65.568 189.976 60.542 189.976 C 55.515 189.976 51.672 186.132 51.672 181.105 L 51.672 155.529 L 43.318 155.529 Z M 310.541 146.659 C 310.541 151.558 306.57 155.529 301.671 155.529 C 296.771 155.529 292.8 151.558 292.8 146.659 C 292.8 141.76 296.771 137.789 301.671 137.789 C 306.57 137.789 310.541 141.76 310.541 146.659 Z M 327.248 146.659 C 327.248 141.633 331.091 137.789 336.118 137.789 L 353.341 137.789 C 358.368 137.789 362.21 141.633 362.21 146.659 L 362.21 155.013 L 378.917 155.013 L 378.917 146.659 C 378.917 141.633 382.762 137.789 387.787 137.789 L 456.683 137.789 C 461.709 137.789 465.553 141.633 465.553 146.659 C 465.553 151.686 461.709 155.529 456.683 155.529 L 431.106 155.529 L 431.106 163.883 C 431.106 168.91 427.262 172.752 422.235 172.752 C 417.209 172.752 413.365 168.91 413.365 163.883 L 413.365 155.529 L 396.658 155.529 L 396.658 172.236 L 405.012 172.236 C 410.038 172.236 413.882 176.08 413.882 181.105 L 413.882 198.329 C 413.882 203.356 410.038 207.2 405.012 207.2 L 336.118 207.2 C 331.091 207.2 327.248 203.356 327.248 198.329 C 327.248 193.303 331.091 189.459 336.118 189.459 L 344.471 189.459 L 344.471 172.753 L 327.764 172.753 L 327.764 181.105 C 327.764 186.132 323.92 189.976 318.894 189.976 C 313.868 189.976 310.023 186.132 310.023 181.105 L 310.023 163.883 C 310.023 158.856 313.868 155.013 318.894 155.013 L 327.248 155.013 L 327.248 146.659 Z M 378.917 172.753 L 362.211 172.753 L 362.211 189.459 L 378.917 189.459 L 378.917 172.753 Z M 500 163.883 C 500 168.782 496.029 172.753 491.13 172.753 C 486.23 172.753 482.259 168.782 482.259 163.883 C 482.259 158.984 486.23 155.013 491.13 155.013 C 496.029 155.013 500 158.984 500 163.883 Z M 34.965 198.329 C 34.965 203.229 30.994 207.2 26.095 207.2 C 21.195 207.2 17.224 203.229 17.224 198.329 C 17.224 193.43 21.195 189.459 26.095 189.459 C 30.994 189.459 34.965 193.43 34.965 198.329 Z M 68.895 198.329 C 68.895 193.303 72.739 189.459 77.764 189.459 C 82.791 189.459 86.634 193.303 86.634 198.329 L 86.634 206.682 L 112.211 206.682 C 117.238 206.682 121.082 210.527 121.082 215.553 C 121.082 220.579 117.238 224.423 112.211 224.423 L 103.859 224.423 L 103.859 232.777 C 103.859 237.804 100.014 241.647 94.988 241.647 C 89.962 241.647 86.119 237.804 86.119 232.777 L 86.119 224.423 L 77.764 224.423 C 72.739 224.423 68.895 220.579 68.895 215.553 L 68.895 198.329 Z M 430.589 198.329 C 430.589 193.303 434.432 189.459 439.459 189.459 C 444.486 189.459 448.329 193.303 448.329 198.329 L 448.329 206.682 L 456.683 206.682 C 461.709 206.682 465.553 210.527 465.553 215.553 C 465.553 220.579 461.709 224.423 456.683 224.423 L 439.459 224.423 C 434.432 224.423 430.589 220.579 430.589 215.553 L 430.589 198.329 Z M 482.776 198.329 C 482.776 203.229 478.805 207.2 473.905 207.2 C 469.006 207.2 465.035 203.229 465.035 198.329 C 465.035 193.43 469.006 189.459 473.905 189.459 C 478.805 189.459 482.776 193.43 482.776 198.329 Z M 181.105 241.647 C 176.08 241.647 172.236 237.804 172.236 232.777 C 172.236 227.75 176.08 223.907 181.105 223.907 L 189.459 223.907 L 189.459 215.553 C 189.459 210.527 193.303 206.682 198.329 206.682 C 203.356 206.682 207.2 210.527 207.2 215.553 L 207.2 223.907 L 215.553 223.907 C 220.579 223.907 224.423 227.75 224.423 232.777 L 224.423 250 C 224.423 255.027 220.579 258.869 215.553 258.869 C 210.527 258.869 206.682 255.027 206.682 250 L 206.682 241.647 L 181.105 241.647 Z M 284.446 241.647 C 279.421 241.647 275.577 237.804 275.577 232.777 C 275.577 227.75 279.421 223.907 284.446 223.907 L 292.8 223.907 L 292.8 215.553 C 292.8 210.527 296.644 206.682 301.671 206.682 C 306.697 206.682 310.541 210.527 310.541 215.553 L 310.541 223.907 L 353.341 223.907 C 358.368 223.907 362.21 227.75 362.21 232.777 C 362.21 237.804 358.368 241.647 353.341 241.647 L 327.764 241.647 L 327.764 250 C 327.764 255.027 323.92 258.869 318.894 258.869 C 313.868 258.869 310.023 255.027 310.023 250 L 310.023 241.647 L 284.446 241.647 Z M 52.188 232.777 C 52.188 237.676 48.217 241.647 43.318 241.647 C 38.418 241.647 34.447 237.676 34.447 232.777 C 34.447 227.878 38.418 223.907 43.318 223.907 C 48.217 223.907 52.188 227.878 52.188 232.777 Z M 138.306 232.777 C 138.306 237.676 134.335 241.647 129.436 241.647 C 124.536 241.647 120.565 237.676 120.565 232.777 C 120.565 227.878 124.536 223.907 129.436 223.907 C 134.335 223.907 138.306 227.878 138.306 232.777 Z M 387.787 241.647 C 382.762 241.647 378.917 237.804 378.917 232.777 C 378.917 227.75 382.762 223.907 387.787 223.907 L 422.235 223.907 C 427.262 223.907 431.106 227.75 431.106 232.777 L 431.106 241.13 L 456.683 241.13 C 461.709 241.13 465.553 244.974 465.553 250 C 465.553 255.027 461.709 258.869 456.683 258.869 L 448.329 258.869 L 448.329 258.87 L 431.106 258.87 L 431.106 267.224 C 431.106 272.251 427.262 276.093 422.235 276.093 L 413.882 276.093 L 413.882 292.8 L 422.235 292.8 C 427.262 292.8 431.106 296.644 431.106 301.671 C 431.106 306.697 427.262 310.541 422.235 310.541 L 396.659 310.541 L 396.659 318.894 C 396.659 323.92 392.814 327.764 387.787 327.764 L 379.436 327.764 L 379.436 344.471 L 396.141 344.471 L 396.141 336.118 C 396.141 331.091 399.985 327.248 405.012 327.248 C 410.038 327.248 413.882 331.091 413.882 336.118 L 413.882 344.471 L 422.235 344.471 C 427.262 344.471 431.106 348.315 431.106 353.341 L 431.106 361.695 L 447.812 361.695 L 447.812 353.341 C 447.812 348.315 451.657 344.471 456.683 344.471 L 465.036 344.471 L 465.036 336.118 C 465.036 331.091 468.879 327.248 473.905 327.248 C 478.932 327.248 482.776 331.091 482.776 336.118 L 482.776 344.471 L 491.13 344.471 C 496.155 344.471 500 348.315 500 353.341 L 500 370.564 C 500 375.591 496.155 379.435 491.13 379.435 L 482.777 379.435 L 482.777 379.436 L 465.553 379.436 L 465.553 387.789 C 465.553 392.814 461.709 396.659 456.683 396.659 L 447.812 396.659 L 447.812 396.658 L 431.105 396.658 L 431.105 413.366 L 431.106 413.366 L 431.106 422.236 C 431.106 427.262 427.262 431.106 422.235 431.106 L 362.21 431.106 L 362.21 439.459 C 362.21 444.486 358.368 448.329 353.341 448.329 C 348.315 448.329 344.471 444.486 344.471 439.459 L 344.471 413.882 L 336.118 413.882 C 331.091 413.882 327.248 410.038 327.248 405.012 L 327.248 379.436 L 310.541 379.436 L 310.541 387.789 C 310.541 392.814 306.697 396.659 301.671 396.659 C 296.644 396.659 292.8 392.814 292.8 387.789 L 292.8 379.435 L 284.446 379.435 C 279.421 379.435 275.577 375.591 275.577 370.564 C 275.577 365.538 279.421 361.695 284.446 361.695 L 292.8 361.695 L 292.8 353.341 C 292.8 348.315 296.644 344.471 301.671 344.471 L 310.023 344.471 L 310.023 336.118 C 310.023 331.091 313.868 327.248 318.894 327.248 C 323.92 327.248 327.764 331.091 327.764 336.118 L 327.764 361.695 L 344.471 361.695 L 344.471 336.118 C 344.471 331.091 348.315 327.248 353.341 327.248 L 361.695 327.248 L 361.695 301.671 C 361.695 296.644 365.538 292.8 370.564 292.8 L 396.141 292.8 L 396.141 276.093 L 387.787 276.093 C 382.762 276.093 378.917 272.251 378.917 267.224 C 378.917 262.198 382.762 258.354 387.787 258.354 L 396.141 258.354 L 396.141 241.647 L 387.787 241.647 Z M 413.365 362.211 L 362.211 362.211 L 362.211 413.366 L 413.365 413.366 L 413.365 362.211 Z M 500 232.777 C 500 237.676 496.029 241.647 491.13 241.647 C 486.23 241.647 482.259 237.676 482.259 232.777 C 482.259 227.878 486.23 223.907 491.13 223.907 C 496.029 223.907 500 227.878 500 232.777 Z M 8.87 258.869 C 3.845 258.869 0 255.027 0 250 C 0 244.974 3.845 241.13 8.87 241.13 L 26.095 241.13 C 31.12 241.13 34.965 244.974 34.965 250 C 34.965 255.027 31.12 258.869 26.095 258.869 L 8.87 258.869 Z M 17.224 284.446 C 17.224 279.421 21.068 275.577 26.095 275.577 L 34.447 275.577 L 34.447 267.224 C 34.447 262.198 38.292 258.354 43.318 258.354 L 68.895 258.354 L 68.895 250 C 68.895 244.974 72.739 241.13 77.764 241.13 C 82.791 241.13 86.634 244.974 86.634 250 L 86.634 258.354 L 94.988 258.354 C 100.014 258.354 103.859 262.198 103.859 267.224 L 103.859 275.577 L 120.565 275.577 L 120.565 267.224 C 120.565 262.198 124.409 258.354 129.436 258.354 C 134.462 258.354 138.306 262.198 138.306 267.224 L 138.306 327.248 L 146.659 327.248 C 151.686 327.248 155.529 331.091 155.529 336.118 L 155.529 361.695 L 172.236 361.695 L 172.236 353.341 C 172.236 348.315 176.08 344.471 181.105 344.471 L 198.329 344.471 C 203.356 344.471 207.2 348.315 207.2 353.341 C 207.2 358.368 203.356 362.211 198.329 362.211 L 189.977 362.211 L 189.977 378.917 L 206.682 378.917 L 206.682 370.564 C 206.682 365.538 210.527 361.695 215.553 361.695 C 220.579 361.695 224.423 365.538 224.423 370.564 L 224.423 439.459 C 224.423 444.486 220.579 448.329 215.553 448.329 L 198.329 448.329 C 193.303 448.329 189.459 444.486 189.459 439.459 C 189.459 434.432 193.303 430.589 198.329 430.589 L 206.682 430.589 L 206.682 396.658 L 189.977 396.658 L 189.977 413.882 L 189.976 413.882 L 189.976 422.236 C 189.976 427.262 186.132 431.106 181.105 431.106 L 155.529 431.106 L 155.529 447.813 L 181.105 447.813 C 186.132 447.813 189.976 451.657 189.976 456.683 C 189.976 461.709 186.132 465.553 181.105 465.553 L 172.753 465.553 L 172.753 482.777 L 172.752 482.777 L 172.752 491.13 C 172.752 496.155 168.91 500 163.883 500 L 146.659 500 C 141.633 500 137.789 496.155 137.789 491.13 C 137.789 486.103 141.633 482.259 146.659 482.259 L 155.013 482.259 L 155.013 465.553 L 146.659 465.553 C 141.633 465.553 137.789 461.709 137.789 456.683 L 137.789 405.012 C 137.789 399.985 141.633 396.141 146.659 396.141 L 155.013 396.141 L 155.013 379.435 L 146.659 379.435 C 141.633 379.435 137.789 375.591 137.789 370.564 L 137.789 362.211 L 94.988 362.211 C 89.962 362.211 86.119 358.368 86.119 353.341 C 86.119 348.315 89.962 344.471 94.988 344.471 L 120.565 344.471 L 120.565 327.764 L 94.988 327.764 C 89.962 327.764 86.119 323.92 86.119 318.894 L 86.119 310.541 L 60.542 310.541 C 55.515 310.541 51.672 306.697 51.672 301.671 C 51.672 296.644 55.515 292.8 60.542 292.8 L 68.895 292.8 L 68.895 276.095 L 52.188 276.095 L 52.188 284.446 C 52.188 289.473 48.344 293.317 43.318 293.317 L 34.965 293.317 L 34.965 301.671 C 34.965 306.697 31.12 310.541 26.095 310.541 L 17.741 310.541 L 17.741 353.341 C 17.741 358.368 13.897 362.211 8.87 362.211 C 3.845 362.211 0 358.368 0 353.341 L 0 301.671 C 0 296.644 3.845 292.8 8.87 292.8 L 17.224 292.8 L 17.224 284.446 Z M 120.565 293.318 L 103.86 293.318 L 103.86 310.023 L 120.565 310.023 L 120.565 293.318 Z M 121.082 250 C 121.082 254.899 117.111 258.87 112.211 258.87 C 107.312 258.87 103.341 254.899 103.341 250 C 103.341 245.101 107.312 241.13 112.211 241.13 C 117.111 241.13 121.082 245.101 121.082 250 Z M 250 276.093 C 244.974 276.093 241.13 272.251 241.13 267.224 C 241.13 262.198 244.974 258.354 250 258.354 L 258.354 258.354 L 258.354 250 C 258.354 244.974 262.198 241.13 267.224 241.13 C 272.251 241.13 276.093 244.974 276.093 250 L 276.093 258.354 L 284.446 258.354 C 289.473 258.354 293.317 262.198 293.317 267.224 L 293.317 275.577 L 301.671 275.577 C 306.697 275.577 310.541 279.421 310.541 284.446 L 310.541 292.8 L 327.248 292.8 L 327.248 267.224 C 327.248 262.198 331.091 258.354 336.118 258.354 L 353.341 258.354 C 358.368 258.354 362.21 262.198 362.21 267.224 C 362.21 272.251 358.368 276.093 353.341 276.093 L 344.988 276.093 L 344.988 301.671 C 344.988 306.697 341.145 310.541 336.118 310.541 L 293.317 310.541 L 293.317 318.894 C 293.317 323.92 289.473 327.764 284.446 327.764 L 276.095 327.764 L 276.095 344.988 L 276.093 344.988 L 276.093 353.341 C 276.093 358.368 272.251 362.211 267.224 362.211 L 250 362.211 C 244.974 362.211 241.13 358.368 241.13 353.341 C 241.13 348.315 244.974 344.471 250 344.471 L 258.354 344.471 L 258.354 327.764 L 241.647 327.764 L 241.647 336.118 C 241.647 341.145 237.804 344.988 232.777 344.988 C 227.75 344.988 223.907 341.145 223.907 336.118 L 223.907 310.541 L 207.2 310.541 L 207.2 318.894 C 207.2 323.92 203.356 327.764 198.329 327.764 C 193.303 327.764 189.459 323.92 189.459 318.894 L 189.459 293.318 L 172.752 293.318 L 172.752 301.671 C 172.752 306.697 168.91 310.541 163.883 310.541 C 158.856 310.541 155.013 306.697 155.013 301.671 L 155.013 284.446 C 155.013 279.421 158.856 275.577 163.883 275.577 L 172.236 275.577 L 172.236 267.224 C 172.236 262.198 176.08 258.354 181.105 258.354 C 186.132 258.354 189.976 262.198 189.976 267.224 L 189.976 275.577 L 198.329 275.577 C 203.356 275.577 207.2 279.421 207.2 284.446 L 207.2 292.8 L 250 292.8 C 255.027 292.8 258.869 296.644 258.869 301.671 L 258.869 310.023 L 275.577 310.023 L 275.577 293.317 L 267.224 293.317 C 262.198 293.317 258.354 289.473 258.354 284.446 L 258.354 276.093 L 250 276.093 Z M 379.435 250 C 379.435 254.899 375.464 258.87 370.564 258.87 C 365.665 258.87 361.694 254.899 361.694 250 C 361.694 245.101 365.665 241.13 370.564 241.13 C 375.464 241.13 379.435 245.101 379.435 250 Z M 482.776 267.224 C 482.776 272.124 478.805 276.095 473.905 276.095 C 469.006 276.095 465.035 272.124 465.035 267.224 C 465.035 262.325 469.006 258.354 473.905 258.354 C 478.805 258.354 482.776 262.325 482.776 267.224 Z M 439.459 293.317 C 434.432 293.317 430.589 289.473 430.589 284.446 C 430.589 279.421 434.432 275.577 439.459 275.577 L 456.683 275.577 C 461.709 275.577 465.553 279.421 465.553 284.446 L 465.553 318.894 C 465.553 323.92 461.709 327.764 456.683 327.764 C 451.657 327.764 447.812 323.92 447.812 318.894 L 447.812 293.317 L 439.459 293.317 Z M 500 301.671 C 500 306.57 496.029 310.541 491.13 310.541 C 486.23 310.541 482.259 306.57 482.259 301.671 C 482.259 296.771 486.23 292.8 491.13 292.8 C 496.029 292.8 500 296.771 500 301.671 Z M 43.318 344.988 C 38.292 344.988 34.447 341.145 34.447 336.118 C 34.447 331.091 38.292 327.248 43.318 327.248 L 77.764 327.248 C 82.791 327.248 86.634 331.091 86.634 336.118 C 86.634 341.145 82.791 344.988 77.764 344.988 L 43.318 344.988 Z M 276.095 387.789 C 276.095 392.688 272.124 396.659 267.224 396.659 C 262.325 396.659 258.354 392.688 258.354 387.789 C 258.354 382.889 262.325 378.918 267.224 378.918 C 272.124 378.918 276.095 382.889 276.095 387.789 Z M 396.658 387.789 C 396.658 392.688 392.687 396.659 387.787 396.659 C 382.888 396.659 378.917 392.688 378.917 387.789 C 378.917 382.889 382.888 378.918 387.787 378.918 C 392.687 378.918 396.658 382.889 396.658 387.789 Z M 258.87 405.012 C 258.87 409.911 254.899 413.882 250 413.882 C 245.101 413.882 241.13 409.911 241.13 405.012 C 241.13 400.112 245.101 396.141 250 396.141 C 254.899 396.141 258.87 400.112 258.87 405.012 Z M 293.317 405.012 C 293.317 409.911 289.346 413.882 284.446 413.882 C 279.547 413.882 275.576 409.911 275.576 405.012 C 275.576 400.112 279.547 396.141 284.446 396.141 C 289.346 396.141 293.317 400.112 293.317 405.012 Z M 465.036 405.012 C 465.036 399.985 468.879 396.141 473.905 396.141 L 491.13 396.141 C 496.155 396.141 500 399.985 500 405.012 C 500 410.038 496.155 413.882 491.13 413.882 L 482.777 413.882 L 482.777 430.589 L 491.13 430.589 C 496.155 430.589 500 434.432 500 439.459 C 500 444.486 496.155 448.329 491.13 448.329 L 482.777 448.329 L 482.777 465.554 L 482.776 465.554 L 482.776 473.905 C 482.776 478.932 478.932 482.776 473.905 482.776 C 468.879 482.776 465.036 478.932 465.036 473.905 L 465.036 465.554 L 448.329 465.554 L 448.329 473.905 C 448.329 478.932 444.486 482.776 439.459 482.776 C 434.432 482.776 430.589 478.932 430.589 473.905 L 430.589 465.554 L 396.658 465.554 L 396.658 482.259 L 396.659 482.259 L 396.659 491.13 C 396.659 496.155 392.814 500 387.787 500 C 382.762 500 378.917 496.155 378.917 491.13 L 378.917 465.553 L 370.564 465.553 C 365.538 465.553 361.695 461.709 361.695 456.683 C 361.695 451.657 365.538 447.813 370.564 447.813 L 430.589 447.813 L 430.589 439.459 C 430.589 434.432 434.432 430.589 439.459 430.589 L 447.812 430.589 L 447.812 422.236 C 447.812 417.209 451.657 413.366 456.683 413.366 L 465.036 413.366 L 465.036 405.012 Z M 310.541 422.236 C 310.541 427.135 306.57 431.106 301.671 431.106 C 296.771 431.106 292.8 427.135 292.8 422.236 C 292.8 417.337 296.771 413.366 301.671 413.366 C 306.57 413.366 310.541 417.337 310.541 422.236 Z M 258.87 439.459 C 258.87 444.358 254.899 448.329 250 448.329 C 245.101 448.329 241.13 444.358 241.13 439.459 C 241.13 434.56 245.101 430.589 250 430.589 C 254.899 430.589 258.87 434.56 258.87 439.459 Z M 267.224 465.553 C 262.198 465.553 258.354 461.709 258.354 456.683 C 258.354 451.657 262.198 447.813 267.224 447.813 L 275.577 447.813 L 275.577 439.459 C 275.577 434.432 279.421 430.589 284.446 430.589 C 289.473 430.589 293.317 434.432 293.317 439.459 L 293.317 447.813 L 293.318 447.813 L 293.318 465.554 L 293.317 465.554 L 293.317 473.905 C 293.317 478.932 289.473 482.776 284.446 482.776 C 279.421 482.776 275.577 478.932 275.577 473.905 L 275.577 465.553 L 267.224 465.553 Z M 327.764 439.459 C 327.764 444.358 323.793 448.329 318.894 448.329 C 313.994 448.329 310.023 444.358 310.023 439.459 C 310.023 434.56 313.994 430.589 318.894 430.589 C 323.793 430.589 327.764 434.56 327.764 439.459 Z M 198.329 482.776 C 193.303 482.776 189.459 478.932 189.459 473.905 C 189.459 468.879 193.303 465.036 198.329 465.036 L 215.553 465.036 C 220.579 465.036 224.423 468.879 224.423 473.905 C 224.423 478.932 220.579 482.776 215.553 482.776 L 198.329 482.776 Z M 318.894 482.776 C 313.868 482.776 310.023 478.932 310.023 473.905 C 310.023 468.879 313.868 465.036 318.894 465.036 L 353.341 465.036 C 358.368 465.036 362.21 468.879 362.21 473.905 C 362.21 478.932 358.368 482.776 353.341 482.776 L 344.988 482.776 L 344.988 491.13 C 344.988 496.155 341.145 500 336.118 500 C 331.091 500 327.248 496.155 327.248 491.13 L 327.248 482.776 L 318.894 482.776 Z M 241.647 491.13 C 241.647 496.029 237.676 500 232.777 500 C 227.878 500 223.907 496.029 223.907 491.13 C 223.907 486.23 227.878 482.259 232.777 482.259 C 237.676 482.259 241.647 486.23 241.647 491.13 Z M 310.541 491.13 C 310.541 496.029 306.57 500 301.671 500 C 296.771 500 292.8 496.029 292.8 491.13 C 292.8 486.23 296.771 482.259 301.671 482.259 C 306.57 482.259 310.541 486.23 310.541 491.13 Z M 431.105 491.13 C 431.105 496.029 427.134 500 422.235 500 C 417.336 500 413.365 496.029 413.365 491.13 C 413.365 486.23 417.336 482.259 422.235 482.259 C 427.134 482.259 431.105 486.23 431.105 491.13 Z M 465.554 491.13 C 465.554 496.029 461.583 500 456.683 500 C 451.784 500 447.813 496.029 447.813 491.13 C 447.813 486.23 451.784 482.259 456.683 482.259 C 461.583 482.259 465.554 486.23 465.554 491.13 Z M 0 81.812 L 0 37.893 C 0 17.224 17.224 0 37.893 0 L 81.812 0 C 103.341 0 120.565 17.224 120.565 38.754 L 120.565 82.673 C 120.565 103.341 103.341 120.565 82.673 120.565 L 38.754 120.565 C 17.224 120.565 0 103.341 0 81.812 Z M 79.228 17.224 L 41.337 17.224 C 28.419 17.224 17.224 28.419 17.224 41.337 L 17.224 79.228 C 17.224 93.008 27.559 103.341 41.337 103.341 L 79.228 103.341 C 92.147 103.341 103.341 92.147 103.341 79.228 L 103.341 41.337 C 103.341 27.559 93.008 17.224 79.228 17.224 Z M 378.917 81.812 L 378.917 37.893 C 378.917 17.224 396.141 0 416.81 0 L 460.73 0 C 482.259 0 499.482 17.224 499.482 38.754 L 499.482 82.673 C 499.482 103.341 482.259 120.565 461.591 120.565 L 417.671 120.565 C 396.141 120.565 378.917 103.341 378.917 81.812 Z M 458.145 17.224 L 420.254 17.224 C 407.337 17.224 396.141 28.419 396.141 41.337 L 396.141 79.228 C 396.141 93.008 406.476 103.341 420.254 103.341 L 458.145 103.341 C 471.064 103.341 482.259 92.147 482.259 79.228 L 482.259 41.337 C 482.259 27.559 471.926 17.224 458.145 17.224 Z M 0 460.73 L 0 416.81 C 0 396.141 17.224 378.917 37.893 378.917 L 81.812 378.917 C 103.341 378.917 120.565 396.141 120.565 417.671 L 120.565 461.591 C 120.565 482.259 103.341 499.482 82.673 499.482 L 38.754 499.482 C 17.224 499.482 0 482.259 0 460.73 Z M 79.228 396.141 L 41.337 396.141 C 28.419 396.141 17.224 407.337 17.224 420.254 L 17.224 458.145 C 17.224 471.926 27.559 482.259 41.337 482.259 L 79.228 482.259 C 92.147 482.259 103.341 471.064 103.341 458.145 L 103.341 420.254 C 103.341 406.476 93.008 396.141 79.228 396.141 Z M 86.119 49.087 L 86.119 72.34 C 86.119 79.228 79.228 86.119 71.478 86.119 L 49.087 86.119 C 40.475 86.119 34.447 80.09 34.447 71.478 L 34.447 49.087 C 34.447 41.337 41.337 34.447 49.087 34.447 L 72.34 34.447 C 80.09 34.447 86.119 40.475 86.119 49.087 Z M 465.036 49.087 L 465.036 72.34 C 465.036 79.228 458.145 86.119 450.395 86.119 L 428.005 86.119 C 419.392 86.119 413.365 80.09 413.365 71.478 L 413.365 49.087 C 413.365 41.337 420.254 34.447 428.005 34.447 L 451.257 34.447 C 459.007 34.447 465.036 40.475 465.036 49.087 Z M 86.119 428.005 L 86.119 451.257 C 86.119 458.145 79.228 465.036 71.478 465.036 L 49.087 465.036 C 40.475 465.036 34.447 459.007 34.447 450.395 L 34.447 428.005 C 34.447 420.254 41.337 413.366 49.087 413.366 L 72.34 413.366 C 80.09 413.366 86.119 419.394 86.119 428.005 Z" fill="#000000" style="" transform="matrix(1, 0, 0, 0.9999999999999999, 0, 0)"/>
</svg>